<svg xmlns="http://www.w3.org/2000/svg" xmlns:xlink="http://www.w3.org/1999/xlink" viewBox="0 0 123 123"><defs><style>.cls-1{fill:url(#linear-gradient);}.cls-2{fill:url(#linear-gradient-2);}.cls-3{fill:#fff;}</style><linearGradient id="linear-gradient" x1="20.18" y1="22.97" x2="102.82" y2="100.03" gradientUnits="userSpaceOnUse"><stop offset="0" stop-color="#d5eec5"/><stop offset="0.08" stop-color="#b0e2a0"/><stop offset="0.18" stop-color="#87d577"/><stop offset="0.28" stop-color="#64cb54"/><stop offset="0.39" stop-color="#48c238"/><stop offset="0.51" stop-color="#32bb22"/><stop offset="0.64" stop-color="#22b612"/><stop offset="0.79" stop-color="#19b309"/><stop offset="1" stop-color="#16b206"/></linearGradient><linearGradient id="linear-gradient-2" x1="16.54" y1="19.58" x2="106.46" y2="103.42" gradientUnits="userSpaceOnUse"><stop offset="0" stop-color="#0fbb0f"/><stop offset="1" stop-color="#023901"/></linearGradient></defs><title>backbutton</title><g id="Layer_2" data-name="Layer 2"><g id="Layer_1-2" data-name="Layer 1"><circle class="cls-1" cx="61.5" cy="61.5" r="56.5"/><path class="cls-2" d="M61.5,5A56.5,56.5,0,1,1,5,61.5,56.51,56.51,0,0,1,61.5,5m0-5A61.5,61.5,0,1,0,123,61.5,61.57,61.57,0,0,0,61.5,0Z"/><path class="cls-3" d="M53,53,72,34A3.48,3.48,0,0,0,72,29l-6.56-6.56a3.48,3.48,0,0,0-4.94,0L27.71,55.29A5.85,5.85,0,0,0,26,59.42v3.16a5.85,5.85,0,0,0,1.71,4.13L60.53,99.53a3.48,3.48,0,0,0,4.94,0L72,93A3.48,3.48,0,0,0,72,88L53,69H93.51A3.49,3.49,0,0,0,97,65.51v-9A3.49,3.49,0,0,0,93.51,53Z"/></g></g></svg>