<svg xmlns="http://www.w3.org/2000/svg" xmlns:xlink="http://www.w3.org/1999/xlink" viewBox="0 0 123 123"><defs><style>.cls-1{fill:url(#linear-gradient);}.cls-2{fill:url(#linear-gradient-2);}.cls-3{fill:#fff;}</style><linearGradient id="linear-gradient" x1="20.18" y1="101.03" x2="102.82" y2="23.97" gradientTransform="matrix(1, 0, 0, -1, 0, 124)" gradientUnits="userSpaceOnUse"><stop offset="0" stop-color="#d5eec5"/><stop offset="0.08" stop-color="#b0e2a0"/><stop offset="0.18" stop-color="#87d577"/><stop offset="0.28" stop-color="#64cb54"/><stop offset="0.39" stop-color="#48c238"/><stop offset="0.51" stop-color="#32bb22"/><stop offset="0.64" stop-color="#22b612"/><stop offset="0.79" stop-color="#19b309"/><stop offset="1" stop-color="#16b206"/></linearGradient><linearGradient id="linear-gradient-2" x1="16.51" y1="104.43" x2="106.47" y2="20.55" gradientTransform="matrix(1, 0, 0, -1, 0, 124)" gradientUnits="userSpaceOnUse"><stop offset="0" stop-color="#0fbb0f"/><stop offset="1" stop-color="#023901"/></linearGradient></defs><title>readyicon</title><g id="Layer_2" data-name="Layer 2"><g id="Layer_1-2" data-name="Layer 1"><g id="Layer_2-2" data-name="Layer 2"><g id="Layer_1-2-2" data-name="Layer 1-2"><circle class="cls-1" cx="61.5" cy="61.5" r="56.5"/><path class="cls-2" d="M61.5,5A56.5,56.5,0,1,1,5,61.5,56.51,56.51,0,0,1,61.5,5m0-5A61.5,61.5,0,1,0,123,61.5,61.49,61.49,0,0,0,61.5,0Z"/><path class="cls-3" d="M20.11,69.6H37.73a2.49,2.49,0,0,1,2.14,1.12l9.13,15L88.34,22.55a2.33,2.33,0,0,1,3.09-.66l13.29,7.83a1.73,1.73,0,0,1,.68,2.44L60,104.66a4.73,4.73,0,0,1-4,2.07H46.5A4.73,4.73,0,0,1,42.71,105L18.1,72.87C17,71.47,18.18,69.6,20.11,69.6Z"/></g></g></g></g></svg>