<svg xmlns="http://www.w3.org/2000/svg" xmlns:xlink="http://www.w3.org/1999/xlink" viewBox="0 0 214.42 78.28"><defs><style>.cls-1{fill:url(#linear-gradient);}.cls-2{fill:url(#linear-gradient-2);}.cls-3{fill:none;}</style><linearGradient id="linear-gradient" x1="8.88" y1="30.79" x2="224.36" y2="90.27" gradientUnits="userSpaceOnUse"><stop offset="0" stop-color="#233145"/><stop offset="1"/></linearGradient><linearGradient id="linear-gradient-2" x1="59.47" y1="107.28" x2="146.99" y2="2.98" gradientUnits="userSpaceOnUse"><stop offset="0" stop-color="#09172b"/><stop offset="1"/></linearGradient></defs><title>BASE-HEALTH</title><g id="Layer_2" data-name="Layer 2"><g id="Layer_1-2" data-name="Layer 1"><path class="cls-1" d="M39.14,61.35A22.21,22.21,0,1,1,61.35,39.14h13.1A35.31,35.31,0,1,0,39.14,74.45H210.59V61.35H39.14Z"/><path class="cls-2" d="M39.14,3.84a35.3,35.3,0,0,1,35.31,35.3H61.35A22.21,22.21,0,1,0,39.14,61.35H210.59v13.1H39.14a35.31,35.31,0,0,1,0-70.61m0-3.84a39.14,39.14,0,0,0,0,78.28H210.59a3.83,3.83,0,0,0,3.83-3.83V61.35a3.83,3.83,0,0,0-3.83-3.84H39.14A18.37,18.37,0,1,1,57.51,39.14,3.84,3.84,0,0,0,61.35,43h13.1a3.84,3.84,0,0,0,3.83-3.84A39.19,39.19,0,0,0,39.14,0Z"/><path class="cls-3" d="M39.14,61.35A22.21,22.21,0,1,1,61.35,39.14h13.1A35.31,35.31,0,1,0,39.14,74.45h0V61.35Z"/><polygon class="cls-3" points="210.59 61.35 66.58 61.35 39.18 61.35 39.18 74.45 210.59 74.45 210.59 61.35"/></g></g></svg>