<svg xmlns="http://www.w3.org/2000/svg" xmlns:xlink="http://www.w3.org/1999/xlink" viewBox="0 0 214.42 78.28"><defs><style>.cls-1{fill:none;}.cls-2{fill:url(#linear-gradient);}</style><linearGradient id="linear-gradient" x1="50.18" y1="-12.21" x2="218.59" y2="168.38" gradientUnits="userSpaceOnUse"><stop offset="0" stop-color="#90d490"/><stop offset="0.05" stop-color="#7ed07e"/><stop offset="0.16" stop-color="#4ec74e"/><stop offset="0.28" stop-color="#0fbb0f"/><stop offset="1" stop-color="#023901"/></linearGradient></defs><title>LINE-HEALTH</title><g id="Layer_2" data-name="Layer 2"><g id="Layer_1-2" data-name="Layer 1"><path class="cls-1" d="M39.14,61.35A22.21,22.21,0,1,1,61.35,39.14h13.1A35.31,35.31,0,1,0,39.14,74.45H210.59V61.35H39.14Z"/><path class="cls-1" d="M39.14,3.84a35.3,35.3,0,0,1,35.31,35.3H61.35A22.21,22.21,0,1,0,39.14,61.35H210.59v13.1H39.14a35.31,35.31,0,0,1,0-70.61m0-3.84a39.14,39.14,0,0,0,0,78.28H210.59a3.83,3.83,0,0,0,3.83-3.83V61.35a3.83,3.83,0,0,0-3.83-3.84H39.14A18.37,18.37,0,1,1,57.51,39.14,3.84,3.84,0,0,0,61.35,43h13.1a3.84,3.84,0,0,0,3.83-3.84A39.19,39.19,0,0,0,39.14,0Z"/><path class="cls-1" d="M39.14,61.35A22.21,22.21,0,1,1,61.35,39.14h13.1A35.31,35.31,0,1,0,39.14,74.45h0V61.35Z"/><polygon class="cls-2" points="210.59 61.35 66.58 61.35 39.18 61.35 39.18 74.45 210.59 74.45 210.59 61.35"/></g></g></svg>