<svg xmlns="http://www.w3.org/2000/svg" xmlns:xlink="http://www.w3.org/1999/xlink" viewBox="0 0 269.55 50.03"><defs><style>.cls-1{fill:url(#linear-gradient);}.cls-2{fill:url(#linear-gradient-2);}</style><linearGradient id="linear-gradient" x1="97.21" y1="-155.89" x2="97.21" y2="-114.99" gradientTransform="translate(231.98 -113.75) rotate(180)" gradientUnits="userSpaceOnUse"><stop offset="0" stop-color="#949494"/><stop offset="1" stop-color="#fff"/></linearGradient><linearGradient id="linear-gradient-2" x1="27.12" y1="-33.15" x2="244.96" y2="92.62" gradientUnits="userSpaceOnUse"><stop offset="0" stop-color="#767a7a"/><stop offset="1" stop-color="#b8b8ba"/></linearGradient></defs><title>NetPower Counter</title><g id="Layer_2" data-name="Layer 2"><g id="Layer_1-2" data-name="Layer 1"><path class="cls-1" d="M18.87,3.6H250.68A15.31,15.31,0,0,1,266,18.87V46.43H3.6V18.87A15.31,15.31,0,0,1,18.87,3.6Z"/><path class="cls-2" d="M250.68,3.6A15.31,15.31,0,0,1,266,18.87V46.43H3.6V18.87A15.31,15.31,0,0,1,18.87,3.6H250.68m0-3.6H18.87A18.88,18.88,0,0,0,0,18.87V50H269.55V18.87A18.89,18.89,0,0,0,250.68,0Z"/><path d="M33.68,33.89H30.27l1.58-9.29A11.94,11.94,0,0,0,32,22.81a2.2,2.2,0,0,0-.48-1.44,1.78,1.78,0,0,0-1.45-.59,3.4,3.4,0,0,0-2.74,1.58,10.42,10.42,0,0,0-1.68,4.57l-1.17,7H21.1l2.58-15.46h3.17L26.24,22a8.2,8.2,0,0,1,2.67-3.37A5.13,5.13,0,0,1,31.32,18a4.09,4.09,0,0,1,4.17,4.35,17.68,17.68,0,0,1-.31,2.57Z"/><path d="M49.65,29.53q-2.13,4.74-6.75,4.74a6.23,6.23,0,0,1-4.79-1.87,7,7,0,0,1-1.74-5,10.33,10.33,0,0,1,2.2-6.68A7,7,0,0,1,44.22,18a5.67,5.67,0,0,1,4.69,2,8.29,8.29,0,0,1,1.59,5.36c0,.37,0,.78,0,1.21H39.83a6.43,6.43,0,0,0-.11,1.16,4.39,4.39,0,0,0,.84,2.81A2.89,2.89,0,0,0,43,31.6q2.4,0,3.65-2.88Zm-2.37-5.17c0-2.62-1-3.93-3-3.93s-3.45,1.31-4.05,3.93Z"/><path d="M57.67,33.92a15.84,15.84,0,0,1-2.17.23,4.39,4.39,0,0,1-3.14-1,3.15,3.15,0,0,1-1-2.35,21.34,21.34,0,0,1,.35-2.79l1.17-6.84h-2.3l.48-2.78h2.32l.93-4.17,3.1-.21-.73,4.38H60l-.46,2.78H56.21L55.06,28.1a12.44,12.44,0,0,0-.22,1.64c0,1,.73,1.48,2.19,1.48a7.13,7.13,0,0,0,1.11-.11Z"/><path d="M62.79,33.89H58.91l3.47-20.76H68c1.8,0,3.12,0,4,.12a5.65,5.65,0,0,1,2.43.81,5.27,5.27,0,0,1,1.92,2A5.88,5.88,0,0,1,77,19a6.41,6.41,0,0,1-1.18,3.82A5.55,5.55,0,0,1,73.05,25a12,12,0,0,1-3.86.53h-5Zm3-17.73-1,6.36h3.68a10.41,10.41,0,0,0,2.72-.25,2.77,2.77,0,0,0,1.37-1.1,3.48,3.48,0,0,0,.59-2,3.07,3.07,0,0,0-.53-1.85,2.36,2.36,0,0,0-1.26-.92,11.69,11.69,0,0,0-2.62-.2Z"/><path d="M82.51,34.29a7.65,7.65,0,0,1-3.33-.76,5.25,5.25,0,0,1-2.45-2.41,8.57,8.57,0,0,1-.84-3.93,9.89,9.89,0,0,1,2.18-6.4,6.94,6.94,0,0,1,5.68-2.7A5.92,5.92,0,0,1,88.38,20a7.55,7.55,0,0,1,1.73,5.21A10.35,10.35,0,0,1,88,31.45,6.51,6.51,0,0,1,82.51,34.29Zm0-2.78a3.21,3.21,0,0,0,3-2.14,10.69,10.69,0,0,0,1-4.48q0-4-3.1-4a3.23,3.23,0,0,0-3.12,2.3,12,12,0,0,0-.94,4.58,3.85,3.85,0,0,0,.91,2.84A3.06,3.06,0,0,0,82.54,31.51Z"/><path d="M104.92,33.89h-3.2l-1.17-11-4.47,11H93L90.63,18.43h3.52l1.4,10.69L100,18.43h3.07l1.13,10.66L109,18.43h3Z"/><path d="M123.39,29.53q-2.13,4.74-6.76,4.74a6.21,6.21,0,0,1-4.78-1.87,7,7,0,0,1-1.74-5,10.27,10.27,0,0,1,2.2-6.68A6.94,6.94,0,0,1,118,18a5.67,5.67,0,0,1,4.69,2,8.29,8.29,0,0,1,1.59,5.36c0,.37,0,.78,0,1.21H113.56a7.37,7.37,0,0,0-.1,1.16,4.39,4.39,0,0,0,.84,2.81,2.88,2.88,0,0,0,2.4,1.07c1.6,0,2.81-1,3.65-2.88ZM121,24.36q0-3.93-3-3.93c-2.1,0-3.44,1.31-4,3.93Z"/><path d="M127.79,33.89h-3.41L127,18.43h3.13l-.7,4.21c1.33-3.09,3.11-4.64,5.36-4.64l.41,0-.44,3.8-.77,0a4.54,4.54,0,0,0-2.38.67,4.7,4.7,0,0,0-1.74,1.8A11.79,11.79,0,0,0,128.78,28Z"/></g></g></svg>