<svg xmlns="http://www.w3.org/2000/svg" viewBox="0 0 100.26 105.53"><defs><style>.cls-1{fill:#fff;}</style></defs><title>temp-skull</title><g id="Layer_2" data-name="Layer 2"><g id="Layer_1-2" data-name="Layer 1"><path class="cls-1" d="M100,44C100,.33,52.92,0,50.13,0S.26.33.26,44c0,0-2,9,5,19,0,0,5,3,5,13l.63,6.84a12,12,0,0,0,4.12,8c2.38,2,5.69,4.11,9.25,4.11h6v8a2.45,2.45,0,0,0,2.5,2.5h5.5s2,.5,2-2.5V95h4v8s0,2,4,2H52c4,0,4-2,4-2V95h4v8c0,3,2,2.5,2,2.5h5.5A2.45,2.45,0,0,0,70,103V95h6c3.56,0,6.87-2.07,9.26-4.11a12,12,0,0,0,4.12-8L90,76c0-10,5-13,5-13C102,53,100,44,100,44ZM27.76,62.5c-6.62,0-12-6-12-13.5s5.38-13.5,12-13.5,12,6,12,13.5S34.39,62.5,27.76,62.5Zm29,17H43.6a2.31,2.31,0,0,1-2.05-3.39l6.26-11.9a2.31,2.31,0,0,1,4-.08L58.75,76A2.31,2.31,0,0,1,56.75,79.5Zm16-16c-6.62,0-12-6.49-12-14.5s5.38-14.5,12-14.5,12,6.49,12,14.5S79.39,63.5,72.76,63.5Z"/></g></g></svg>