<svg xmlns="http://www.w3.org/2000/svg" xmlns:xlink="http://www.w3.org/1999/xlink" viewBox="0 0 59.96 44.98"><defs><style>.cls-1{fill:none;}.cls-2{clip-path:url(#clip-path);}.cls-3{fill:#020202;}.cls-4{fill:#fefae4;}.cls-5{fill:#fefbec;}.cls-6{fill:#fef8d8;}.cls-7{fill:#fde016;}.cls-8{fill:#fee432;}.cls-9{fill:#fef2a1;}.cls-10{fill:#fef4b8;}.cls-11{fill:#fef090;}.cls-12{fill:#fef7cc;}.cls-13{fill:#fee642;}.cls-14{fill:#feee86;}.cls-15{fill:#fee857;}.cls-16{fill:#fdea67;}.cls-17{fill:#fdec79;}.cls-18{fill:#fefefe;}</style><clipPath id="clip-path" transform="translate(5.44 -12.46)"><path class="cls-1" d="M74.86,69.26,43.71,67.89,25.34,57.5A18.39,18.39,0,0,1,7,39.13c0-1.5-4.87-2.53-5.85-4.5C-5.31,21.65,17.72.26,26.35,0,47.58-.6,80.58,27,43.71,39.13"/></clipPath></defs><title>temp-little-guy</title><g id="Layer_2" data-name="Layer 2"><g id="Layer_1-2" data-name="Layer 1"><g class="cls-2"><path class="cls-3" d="M-5.44,57.44a2.51,2.51,0,0,1,.48-.8,25.55,25.55,0,0,1,2.27-3,2.18,2.18,0,0,1,1.29-.71c1.75-.35,3.5-.72,5.24-1.09S7.52,51,9.36,50.56a1.18,1.18,0,0,0,.55-.32,24.35,24.35,0,0,0,4-5.15c.06-.09.12-.17,0-.28a15.69,15.69,0,0,1-3.62-4.63,21.51,21.51,0,0,1-1.24-2,14.89,14.89,0,0,1-1.23-4.64c0-.52-.18-1-.26-1.56a9.89,9.89,0,0,1,.13-3.43c.2-1,.33-2.08.6-3.1a19.32,19.32,0,0,1,2-4.74,14.46,14.46,0,0,1,2.42-3.34,13.49,13.49,0,0,1,4.78-2.93,35.17,35.17,0,0,1,6.83-1.84,14.46,14.46,0,0,1,7.11.62A20.72,20.72,0,0,1,39.26,18a16,16,0,0,1,4.25,7.15,24.76,24.76,0,0,1,1,5.61,16.41,16.41,0,0,1-1.38,8.15,12.28,12.28,0,0,1-2.5,3.48,27.93,27.93,0,0,1-4.06,3.54c-.37.24-.37.25-.06.58.79.88,1.57,1.78,2.38,2.63.45.48.89,1,1.33,1.45a1.47,1.47,0,0,0,.93.49c1.54.27,3.07.55,4.61.81,1.32.22,2.65.42,4,.62a.88.88,0,0,1,.49.24,45.43,45.43,0,0,1,3.47,3.61c.24.28.49.55.72.83.06.07.2.12.14.27H51.82a10.69,10.69,0,0,0-.94-1.27,6.9,6.9,0,0,0-4-2.71c-1.5-.37-3-.8-4.49-1.19a10.14,10.14,0,0,0-1.8-.47l-.51-.12a4.7,4.7,0,0,1-2.14-.87,18.61,18.61,0,0,1-3.46-3.52c-.08-.12-.14-.13-.27-.08a15.1,15.1,0,0,1-5.87,1.44c-1.42,0-2.84,0-4.26-.2-.67-.08-1.34-.17-2-.27a15.45,15.45,0,0,1-2.25-.45A16.65,16.65,0,0,1,16,46.22c-.14-.08-.22-.12-.3.07a6.72,6.72,0,0,1-2,2.6A13.23,13.23,0,0,1,9.45,51.4c-1,.35-2,.75-3.08,1a36.68,36.68,0,0,1-3.88.83,6.79,6.79,0,0,0-2.92,1.1,9.31,9.31,0,0,0-2,2,4.53,4.53,0,0,0-.74,1ZM9.62,31c0,.56,0,1.12,0,1.69A7.35,7.35,0,0,0,9.74,34a9.48,9.48,0,0,0,.68,2.61A19.67,19.67,0,0,0,11.52,39a26,26,0,0,0,1.33,2.28A8.89,8.89,0,0,0,15,43.59s0,0,.06.07a14.32,14.32,0,0,0,6.23,2.73c1.16.22,2.33.4,3.5.52a20.26,20.26,0,0,0,4.67,0,15.77,15.77,0,0,0,4.19-1.13,13.77,13.77,0,0,0,3.46-2.26,14.92,14.92,0,0,0,3.21-3.56,12.35,12.35,0,0,0,1.07-1.78,8.6,8.6,0,0,0,.72-1.71,9.46,9.46,0,0,0,.59-2.51c0-.14,0-.29.06-.43a13,13,0,0,0,0-2.42,6.06,6.06,0,0,0-.12-1.41,13.38,13.38,0,0,0-.4-2.06,13.83,13.83,0,0,0-.8-2.43A16.48,16.48,0,0,0,40,22.22a14.53,14.53,0,0,0-2.63-3.31,14.7,14.7,0,0,0-3.76-2.58,13.08,13.08,0,0,0-2.69-1.09,15.55,15.55,0,0,0-3.33-.71,18,18,0,0,0-4.22.06,15.74,15.74,0,0,0-2.63.63,16.78,16.78,0,0,0-2.26.88,14.12,14.12,0,0,0-3.86,2.38,11.85,11.85,0,0,0-2.72,3.3,12.48,12.48,0,0,0-1.3,2.94,11.63,11.63,0,0,0-.51,2,7.51,7.51,0,0,0-.17,1l0,.09,0,.4A16.25,16.25,0,0,0,9.62,31Z" transform="translate(5.44 -12.46)"/><path class="cls-4" d="M28.34,48.65a15.1,15.1,0,0,0,5.87-1.44c.13-.05.19,0,.27.08a18.61,18.61,0,0,0,3.46,3.52,4.7,4.7,0,0,0,2.14.87l.51.12c0,.14-.1.18-.22.22L36,53.58c-1.3.46-2.6.91-3.89,1.38L27.57,56.6c-.52.19-1.06.35-1.57.58-.12,0-.24.09-.22.26H10.49a.4.4,0,0,0-.28-.4,1.56,1.56,0,0,0-1.35.4H4.56A1.68,1.68,0,0,1,5.42,57c1.13-.39,2.26-.8,3.39-1.21s2.57-.89,3.86-1.35c1.47-.52,2.93-1.06,4.4-1.59s2.77-1,4.15-1.47,2.94-1.06,4.41-1.59L28,49C28.12,48.94,28.35,48.92,28.34,48.65Z" transform="translate(5.44 -12.46)"/><path class="cls-5" d="M28.34,48.65c0,.27-.22.29-.38.35l-2.33.82c-1.47.53-2.94,1.07-4.41,1.59s-2.77,1-4.15,1.47-2.93,1.07-4.4,1.59c-1.29.46-2.58.89-3.86,1.35S6.55,56.64,5.42,57a1.68,1.68,0,0,0-.86.41H-3.19a4.53,4.53,0,0,1,.74-1,9.31,9.31,0,0,1,2-2,6.79,6.79,0,0,1,2.92-1.1,36.68,36.68,0,0,0,3.88-.83c1-.27,2.06-.67,3.08-1a13.23,13.23,0,0,0,4.25-2.51,6.72,6.72,0,0,0,2-2.6c.08-.19.16-.15.3-.07a16.65,16.65,0,0,0,3.86,1.51,15.45,15.45,0,0,0,2.25.45c.66.1,1.33.19,2,.27C25.5,48.6,26.92,48.63,28.34,48.65Z" transform="translate(5.44 -12.46)"/><path class="cls-6" d="M25.78,57.44c0-.17.1-.21.22-.26.51-.23,1.05-.39,1.57-.58L32.13,55c1.29-.47,2.59-.92,3.89-1.38L40.37,52c.12,0,.21-.08.22-.22a10.14,10.14,0,0,1,1.8.47c1.49.39,3,.82,4.49,1.19a6.9,6.9,0,0,1,4,2.71,10.69,10.69,0,0,1,.94,1.27Z" transform="translate(5.44 -12.46)"/><path class="cls-3" d="M8.86,57.44a1.56,1.56,0,0,1,1.35-.4.4.4,0,0,1,.28.4H10.3a.35.35,0,0,0-.38-.19,1.16,1.16,0,0,0-.62.19Z" transform="translate(5.44 -12.46)"/><path class="cls-7" d="M9.3,57.44a1.16,1.16,0,0,1,.62-.19.35.35,0,0,1,.38.19Z" transform="translate(5.44 -12.46)"/><path class="cls-8" d="M40.3,39.91a14.92,14.92,0,0,1-3.21,3.56,1.56,1.56,0,0,0-.9-.12c-1.53,0-3.07,0-4.61,0-.09,0-.2,0-.21.09s.14.32.25.45.21.08.33,0a.5.5,0,0,1,.76.34.86.86,0,0,1-.24.8,2.34,2.34,0,0,1-1.52.63,14.52,14.52,0,0,1-3.28-.42,11.68,11.68,0,0,0-2.88-.33c-.7,0-1.39,0-2.09.05a4.53,4.53,0,0,1-2.33-.55c-.22-.11-.43-.35-.72-.15,0,0-.1,0-.15,0a2.39,2.39,0,0,1-.56-.32,1.81,1.81,0,0,0-1.14-.43c-.86,0-1.73,0-2.59,0-.11,0-.22,0-.23.14a8.89,8.89,0,0,1-2.13-2.28A26,26,0,0,1,11.52,39c.73-.05,1.45,0,2.18,0,1.37,0,2.74,0,4.11,0,.12,0,.23,0,.34,0a6,6,0,0,0,1.7,0,2.54,2.54,0,0,0,.34.55.65.65,0,0,0,.95.08c.21-.18.23-.46.33-.69.59,0,1.18,0,1.77,0,1.45,0,2.89,0,4.33,0,.3,0,.59.15.89,0a3.41,3.41,0,0,0,.31.49.68.68,0,0,0,1,.13c.81,0,1.62,0,2.43,0,1.06.07,2.13,0,3.2.07C37.06,39.88,38.68,39.76,40.3,39.91Zm-18,1.56c-.53,0-1.06,0-1.59,0a9.65,9.65,0,0,0-1.61.16c-.2,0-.5.08-.44.34s.35.13.53.07a3.87,3.87,0,0,1,1.05-.27c.59,0,1.18-.06,1.78-.06a28.28,28.28,0,0,1,4.5.3,10.63,10.63,0,0,1,3,1.14c.17.09.33.17.5.24a.2.2,0,0,0,.28-.08c.06-.09,0-.18,0-.26a1,1,0,0,0-.43-.3,18.92,18.92,0,0,0-3-.95A24.45,24.45,0,0,0,22.33,41.47Zm2.92,2.65a23.11,23.11,0,0,1,3.1.46,12,12,0,0,0,2.39.31c.07,0,.16,0,.19-.06s-.05-.15-.1-.17c-.32-.1-.53-.41-.84-.49a1.26,1.26,0,0,1-.59-.38.33.33,0,0,0-.35-.13c-1,.25-2,.1-2.93.29a.31.31,0,0,1-.19,0C25.68,43.76,25.5,43.93,25.25,44.12Zm-.12,0a3.28,3.28,0,0,1-.56-.39.15.15,0,0,0-.17,0c-.28.12-.62-.08-.89.14,0,0-.06,0-.09,0-.2-.13-.37-.34-.66-.27a.07.07,0,0,1-.05,0,.69.69,0,0,0-.63-.17.93.93,0,0,1-.4-.12c-.25-.1-.56,0-.79-.23,0,0-.07,0-.11,0l-.53.19c-.06,0-.12,0-.12.12s.05.1.1.13a4.44,4.44,0,0,0,1.57.67A14.84,14.84,0,0,0,25.13,44.09Z" transform="translate(5.44 -12.46)"/><path class="cls-9" d="M40,22.22a16.48,16.48,0,0,1,1.47,2.94,3.64,3.64,0,0,1-.93.06c-.72,0-1.43-.07-2.15-.07-1.21,0-2.43.05-3.64,0-1-.08-2-.05-3-.06C29.3,25,26.84,25,24.39,25c-.81,0-1.62,0-2.43,0-1-.07-2,0-3.05-.06-1.64-.08-3.28,0-4.92-.06-1.13-.05-2.26-.05-3.4-.08a12.48,12.48,0,0,1,1.3-2.94c1.31,0,2.61,0,3.92.06.93.07,1.87,0,2.8.05l6.71.09c1,0,2,0,3,0s2,0,3,.07c1.59.07,3.19,0,4.8.05C37.41,22.2,38.7,22.21,40,22.22Z" transform="translate(5.44 -12.46)"/><path class="cls-10" d="M40,22.22c-1.29,0-2.58,0-3.86-.08-1.61-.06-3.21,0-4.8-.05-1-.05-2,0-3-.07s-2,0-3,0l-6.71-.09c-.93,0-1.87,0-2.8-.05-1.31-.1-2.61,0-3.92-.06a11.85,11.85,0,0,1,2.72-3.3c0,.13.12.12.21.12.75,0,1.49,0,2.24,0,1.59.08,3.19,0,4.79.07,1,.07,1.95,0,2.93.06,1.68.08,3.38,0,5.07.06s3.15,0,4.73.06c.92.06,1.85,0,2.78,0A14.53,14.53,0,0,1,40,22.22Z" transform="translate(5.44 -12.46)"/><path class="cls-11" d="M10.59,24.72c1.14,0,2.27,0,3.4.08,1.64.08,3.28,0,4.92.06,1,.05,2,0,3.05.06.81.06,1.62,0,2.43,0,2.45,0,4.91.07,7.36.08,1,0,2,0,3,.06,1.21.09,2.43,0,3.64,0,.72,0,1.43.07,2.15.07a3.64,3.64,0,0,0,.93-.06,13.83,13.83,0,0,1,.8,2.43c-2.12,0-4.25,0-6.37-.06a.45.45,0,0,1-.37-.12l.85-1.28s0-.07,0-.08,0,0-.05,0A16.54,16.54,0,0,0,35,27.16c-.32,0-.64,0-1-.06-.89,0-1.78,0-2.67-.06-1.66-.08-3.33.05-5-.06-1.06-.07-2.13,0-3.2-.06-1.5-.09-3,0-4.49-.06-1.71-.09-3.43,0-5.14-.06-1.16-.05-2.33-.05-3.49-.09A11.63,11.63,0,0,1,10.59,24.72Z" transform="translate(5.44 -12.46)"/><path class="cls-12" d="M37.36,18.91c-.93,0-1.86.05-2.78,0-1.58-.09-3.16,0-4.73-.06s-3.39,0-5.07-.06c-1-.05-2,0-2.93-.06-1.6-.11-3.2,0-4.79-.07-.75,0-1.49,0-2.24,0-.09,0-.19,0-.21-.12a14.12,14.12,0,0,1,3.86-2.38,4.38,4.38,0,0,0,1.19.12c.88.07,1.76,0,2.64.06,1.85.07,3.69,0,5.54.07,1,0,2,0,3,0,.81,0,1.62.12,2.43.07.11,0,.25,0,.34-.09A14.7,14.7,0,0,1,37.36,18.91Z" transform="translate(5.44 -12.46)"/><path class="cls-13" d="M40.3,39.91c-1.62-.15-3.24,0-4.86-.09-1.07,0-2.14,0-3.2-.07-.81,0-1.62,0-2.43,0a2.37,2.37,0,0,0,.29-1c.11-.89.12-1.8.18-2.7l1.8,0c1.86,0,3.72,0,5.57.07,1.36,0,2.72.12,4.08.07h.15c.11,0,.2.07.21.2a8.6,8.6,0,0,1-.72,1.71A12.35,12.35,0,0,1,40.3,39.91Z" transform="translate(5.44 -12.46)"/><path class="cls-14" d="M10.08,26.71c1.16,0,2.33,0,3.49.09,1.71.07,3.43,0,5.14.06,1.5.07,3,0,4.49.06,1.07.06,2.14,0,3.2.06,1.66.11,3.33,0,5,.06.89.05,1.78,0,2.67.06.32,0,.64.06,1,.06-.54.58-1.09,1.15-1.67,1.69a7.44,7.44,0,0,0-1.76-.11c-1.81-.07-3.62,0-5.43-.08-1.45-.06-2.9.05-4.36-.06-1-.07-2,0-2.95-.05-1.15-.07-2.29,0-3.44,0-.12,0-.25,0-.31.14a13.23,13.23,0,0,0-1.92-1.16l.75.87c0,.09-.13.09-.21.09h-3.6c-.16,0-.26-.06-.27-.23l0-.4,0-.09A7.51,7.51,0,0,1,10.08,26.71Z" transform="translate(5.44 -12.46)"/><path class="cls-15" d="M10.42,36.65A9.48,9.48,0,0,1,9.74,34a7.35,7.35,0,0,1-.11-1.32,6.11,6.11,0,0,0,1.48.1c1.78.06,3.56,0,5.34.08.64,0,1.29,0,1.93,0a1.7,1.7,0,0,0,.55-.07c.16.13.35.21.38.45.13,1.16.16,2.33.22,3.49-1.43,0-2.86,0-4.29-.05C13.64,36.64,12,36.78,10.42,36.65Z" transform="translate(5.44 -12.46)"/><path class="cls-7" d="M15,43.59c0-.15.12-.14.23-.14.86,0,1.73,0,2.59,0a1.81,1.81,0,0,1,1.14.43,2.39,2.39,0,0,0,.56.32c.05,0,.12.06.15,0,.29-.2.5,0,.72.15A4.53,4.53,0,0,0,22.7,45c.7,0,1.39,0,2.09-.05a11.68,11.68,0,0,1,2.88.33,14.52,14.52,0,0,0,3.28.42A2.34,2.34,0,0,0,32.47,45a.86.86,0,0,0,.24-.8.5.5,0,0,0-.76-.34c-.12.07-.24.11-.33,0s-.26-.26-.25-.45.12-.09.21-.09c1.54,0,3.08,0,4.61,0a1.56,1.56,0,0,1,.9.12,13.77,13.77,0,0,1-3.46,2.26,15.77,15.77,0,0,1-4.19,1.13,20.26,20.26,0,0,1-4.67,0c-1.17-.12-2.34-.3-3.5-.52A14.32,14.32,0,0,1,15,43.66S15,43.61,15,43.59Z" transform="translate(5.44 -12.46)"/><path class="cls-15" d="M42.09,36.42c0-.13-.1-.17-.21-.2h-.15c-1.36,0-2.72,0-4.08-.07-1.85,0-3.71,0-5.57-.07l-1.8,0-.05-2.25c1.57,0,3.15,0,4.73,0s3,.08,4.45.08h3.27A9.46,9.46,0,0,1,42.09,36.42Z" transform="translate(5.44 -12.46)"/><path class="cls-16" d="M42.68,33.91H39.41c-1.49,0-3,0-4.45-.08s-3.16,0-4.73,0a.13.13,0,0,1,0-.14l2.06-2.31c.06.15.19.14.31.15.88,0,1.75,0,2.62,0,1.06.07,2.13,0,3.2.07,1.25,0,2.5,0,3.75,0,.53,0,.53,0,.57-.53a13,13,0,0,1,0,2.42C42.73,33.62,42.7,33.77,42.68,33.91Z" transform="translate(5.44 -12.46)"/><path class="cls-13" d="M10.42,36.65c1.61.13,3.22,0,4.82.07,1.43.08,2.86,0,4.29.05a14.93,14.93,0,0,0,.32,2.31,6,6,0,0,1-1.7,0c-.11,0-.22,0-.34,0-1.37,0-2.74,0-4.11,0-.73,0-1.45-.1-2.18,0A19.67,19.67,0,0,1,10.42,36.65Z" transform="translate(5.44 -12.46)"/><path class="cls-6" d="M33.6,16.33c-.09.14-.23.08-.34.09-.81,0-1.62-.08-2.43-.07-1,0-2,0-3,0-1.85-.08-3.69,0-5.54-.07-.88,0-1.76,0-2.64-.06a4.38,4.38,0,0,1-1.19-.12,16.78,16.78,0,0,1,2.26-.88,15.74,15.74,0,0,1,2.63-.63,18,18,0,0,1,4.22-.06,15.55,15.55,0,0,1,3.33.71A13.08,13.08,0,0,1,33.6,16.33Z" transform="translate(5.44 -12.46)"/><path class="cls-17" d="M42.78,31.06c0,.53,0,.53-.57.53-1.25,0-2.5,0-3.75,0-1.07,0-2.14,0-3.2-.07-.87-.05-1.74,0-2.62,0-.12,0-.25,0-.31-.15L34,29.4c0,.15.14.13.24.13.74,0,1.47,0,2.21,0s1.78,0,2.67.06c1.19.06,2.39,0,3.58,0A6.06,6.06,0,0,1,42.78,31.06Z" transform="translate(5.44 -12.46)"/><path class="cls-16" d="M18.93,32.83a1.7,1.7,0,0,1-.55.07c-.64,0-1.29,0-1.93,0-1.78-.09-3.56,0-5.34-.08a6.11,6.11,0,0,1-1.48-.1c0-.57,0-1.13,0-1.69a.2.2,0,0,0,.05-.18c-.05-.3.11-.34.36-.33s.75.06,1.11.06c1.65,0,3.29.1,4.94.07a.54.54,0,0,0,.33-.06C17.29,31.29,18.1,32.08,18.93,32.83Z" transform="translate(5.44 -12.46)"/><path class="cls-14" d="M42.66,29.65c-1.19,0-2.39.05-3.58,0-.89-.05-1.79,0-2.67-.06s-1.47,0-2.21,0c-.1,0-.22,0-.24-.13l1.56-2a.45.45,0,0,0,.37.12c2.12.07,4.25.07,6.37.06A13.38,13.38,0,0,1,42.66,29.65Z" transform="translate(5.44 -12.46)"/><path class="cls-17" d="M16.41,30.59a.54.54,0,0,1-.33.06c-1.65,0-3.29-.09-4.94-.07-.36,0-.74,0-1.11-.06s-.41,0-.36.33a.2.2,0,0,1-.05.18,16.25,16.25,0,0,1,.23-2.79c0,.17.11.23.27.23h3.6c.08,0,.17,0,.21-.09Z" transform="translate(5.44 -12.46)"/><path class="cls-17" d="M9.91,27.75l0,.09Z" transform="translate(5.44 -12.46)"/><path class="cls-3" d="M16.41,30.59l-2.48-2.21-.75-.87a13.23,13.23,0,0,1,1.92,1.16c1,.75,1.94,1.48,2.94,2.17l1.7,1.3,2.81,2.11c.14.11.19.14.24-.09a19.78,19.78,0,0,0,.42-3.26c.06-.16-.06-.35.13-.54a.9.9,0,0,0,.08.42l.31,2.31a17.48,17.48,0,0,1,.1,2.8c0,.23-.07.45-.11.67-.06.38-.28.5-.64.34a2.05,2.05,0,0,1-.71-.6l-.71-.88a28.65,28.65,0,0,1-.19,3.6c-.1.23-.12.51-.33.69a.65.65,0,0,1-.95-.08,2.54,2.54,0,0,1-.34-.55,14.93,14.93,0,0,1-.32-2.31c-.06-1.16-.09-2.33-.22-3.49,0-.24-.22-.32-.38-.45C18.1,32.08,17.29,31.29,16.41,30.59Zm3.43,3A24.71,24.71,0,0,0,20,37c0,.25.21.3.42.25s.46-.33.57-.61A5.06,5.06,0,0,0,21.18,35c0-.1-.07-.14-.13-.2Z" transform="translate(5.44 -12.46)"/><path class="cls-3" d="M35.52,27.41,34,29.4l-1.63,1.92-2.06,2.31a.13.13,0,0,0,0,.14L30.28,36c-.06.9-.07,1.81-.18,2.7a2.37,2.37,0,0,1-.29,1,.68.68,0,0,1-1-.13,3.41,3.41,0,0,1-.31-.49A12.67,12.67,0,0,1,28,36.44a3.58,3.58,0,0,1-.36.28c-.31.19-.52.11-.64-.24-.06-.17,0-.35-.06-.52l0-1.65a1.14,1.14,0,0,0,0-.52l0-.64c.07-.77.1-1.54.12-2.31l.08-.55h0l.14.61L28,34.09,31.15,31c.75-.71,1.49-1.43,2.2-2.18.58-.54,1.13-1.11,1.67-1.69a16.54,16.54,0,0,1,1.31-1.07s0,0,0,0Zm-5.73,6.77c-.24.29-.46.59-.72.86a1.57,1.57,0,0,0-.54,1.66.8.8,0,0,1,0,.27c0,.39.33.59.69.33a1.47,1.47,0,0,0,.54-1A9.56,9.56,0,0,0,29.79,34.18Z" transform="translate(5.44 -12.46)"/><path class="cls-13" d="M27,36c.05.17,0,.35.06.52.12.35.33.43.64.24a3.58,3.58,0,0,0,.36-.28,12.67,12.67,0,0,0,.45,2.64c-.3.15-.59,0-.89,0-1.44,0-2.88,0-4.33,0-.59,0-1.18-.07-1.77,0a28.65,28.65,0,0,0,.19-3.6l.71.88a2.05,2.05,0,0,0,.71.6c.36.16.58,0,.64-.34,0-.22.08-.44.11-.67C24.87,36,25.91,35.94,27,36Z" transform="translate(5.44 -12.46)"/><path class="cls-3" d="M22.33,41.47a24.45,24.45,0,0,1,4.52.34,18.92,18.92,0,0,1,3,.95,1,1,0,0,1,.43.3c.05.08.1.17,0,.26a.2.2,0,0,1-.28.08c-.17-.07-.33-.15-.5-.24a10.63,10.63,0,0,0-3-1.14,28.28,28.28,0,0,0-4.5-.3c-.6,0-1.19,0-1.78.06a3.87,3.87,0,0,0-1.05.27c-.18.06-.46.21-.53-.07s.24-.3.44-.34a9.65,9.65,0,0,1,1.61-.16C21.27,41.46,21.8,41.47,22.33,41.47Z" transform="translate(5.44 -12.46)"/><path class="cls-7" d="M25.25,44.12c.25-.19.43-.36.68-.18a.31.31,0,0,0,.19,0c1-.19,2,0,2.93-.29a.33.33,0,0,1,.35.13,1.26,1.26,0,0,0,.59.38c.31.08.52.39.84.49.05,0,.13.09.1.17s-.12.06-.19.06a12,12,0,0,1-2.39-.31A23.11,23.11,0,0,0,25.25,44.12Z" transform="translate(5.44 -12.46)"/><path class="cls-7" d="M25.13,44.09a14.84,14.84,0,0,1-3.33,0,4.44,4.44,0,0,1-1.57-.67c-.05,0-.11-.06-.1-.13s.06-.1.12-.12l.53-.19s.1,0,.11,0c.23.22.54.13.79.23a.93.93,0,0,0,.4.12.69.69,0,0,1,.63.17.07.07,0,0,0,.05,0c.29-.07.46.14.66.27,0,0,.08,0,.09,0,.27-.22.61,0,.89-.14a.15.15,0,0,1,.17,0A3.28,3.28,0,0,0,25.13,44.09Z" transform="translate(5.44 -12.46)"/><path class="cls-3" d="M36.33,26.09s0-.06.05,0,0,.05,0,.08S36.34,26.1,36.33,26.09Z" transform="translate(5.44 -12.46)"/><path class="cls-17" d="M33.35,28.85c-.71.75-1.45,1.47-2.2,2.18a.48.48,0,0,0-.26-.07c-1.18.05-2.35-.08-3.53-.06l-.14-.61h0l-.08.55c-1.22-.12-2.45,0-3.67-.06a.9.9,0,0,1-.08-.42c-.19.19-.07.38-.13.54-1.22,0-2.44-.11-3.66-.06a2.08,2.08,0,0,1-.56,0,2.17,2.17,0,0,0-.95,0c-1-.69-2-1.42-2.94-2.17.06-.15.19-.14.31-.14,1.15,0,2.29-.05,3.44,0,1,.05,2,0,2.95.05,1.46.11,2.91,0,4.36.06,1.81.08,3.62,0,5.43.08A7.44,7.44,0,0,1,33.35,28.85Z" transform="translate(5.44 -12.46)"/><path class="cls-16" d="M18,30.84a2.17,2.17,0,0,1,.95,0,2.08,2.08,0,0,0,.56,0c1.22-.05,2.44.09,3.66.06a19.78,19.78,0,0,1-.42,3.26c-.05.23-.1.2-.24.09l-2.81-2.11Z" transform="translate(5.44 -12.46)"/><path class="cls-15" d="M27,36c-1,0-2.08,0-3.12-.07a17.48,17.48,0,0,0-.1-2.8c1.08,0,2.16,0,3.24.06l0,.64a1.31,1.31,0,0,0,0,.52Z" transform="translate(5.44 -12.46)"/><path class="cls-16" d="M27,33.15c-1.08-.08-2.16-.06-3.24-.06l-.31-2.31c1.22,0,2.45-.06,3.67.06C27.07,31.61,27,32.38,27,33.15Z" transform="translate(5.44 -12.46)"/><path class="cls-18" d="M19.84,33.63l1.21,1.12c.06.06.13.1.13.2A5.06,5.06,0,0,1,21,36.64c-.11.28-.25.54-.57.61s-.39,0-.42-.25A24.71,24.71,0,0,1,19.84,33.63Z" transform="translate(5.44 -12.46)"/><path class="cls-16" d="M27.36,30.9c1.18,0,2.35.11,3.53.06a.48.48,0,0,1,.26.07L28,34.09Z" transform="translate(5.44 -12.46)"/><path class="cls-18" d="M29.79,34.18a9.56,9.56,0,0,1,0,2.14,1.47,1.47,0,0,1-.54,1c-.36.26-.71.06-.69-.33a.8.8,0,0,0,0-.27A1.57,1.57,0,0,1,29.07,35C29.33,34.77,29.55,34.47,29.79,34.18Z" transform="translate(5.44 -12.46)"/><path class="cls-13" d="M26.91,34.31a1.31,1.31,0,0,1,0-.52A1.14,1.14,0,0,1,26.91,34.31Z" transform="translate(5.44 -12.46)"/></g></g></g></svg>