<svg xmlns="http://www.w3.org/2000/svg" viewBox="0 0 199.5 124.02"><defs><style>.cls-1{fill:#fff;}</style></defs><title>temp-gun-icon</title><g id="Layer_2" data-name="Layer 2"><g id="Layer_1-2" data-name="Layer 1"><path class="cls-1" d="M198.58,9H196.5V3.78A3.79,3.79,0,0,0,192.71,0H21.34A10.85,10.85,0,0,0,11.21,7H9.72A2.92,2.92,0,0,0,6.94,9L.05,38a1.66,1.66,0,0,0,1.81,2H10.5v4.74A2.26,2.26,0,0,0,12.76,47H27.33a5.13,5.13,0,0,1,.53,4.66C16.43,81.71,14.5,101,14.5,101s1,22,24,23c19.16.83,29.22-30.27,33.26-51.08H93.52a9.84,9.84,0,0,0,9.39-6.71L111,47h75.52a10,10,0,0,0,10-10V24h2.08a.92.92,0,0,0,.92-.91V9.91A.92.92,0,0,0,198.58,9Zm-100,53.52c-1.68,5-4,4.7-4,4.7L72.81,67c.28-1.81.51-3.48.69-5,0-.11,0-.22,0-.33H84.35a5.39,5.39,0,0,0,5.29-3.21L95.3,47h10.31Z"/></g></g></svg>